<mxfile host="65bd71144e">
    <diagram name="Page-1" id="AIPoxRdhrtce3UdJt4KN">
        <mxGraphModel dx="813" dy="456" grid="0" gridSize="10" guides="1" tooltips="1" connect="1" arrows="1" fold="1" page="1" pageScale="1" pageWidth="827" pageHeight="1169" background="#ffffff" math="0" shadow="0">
            <root>
                <mxCell id="0"/>
                <mxCell id="1" parent="0"/>
                <mxCell id="sGVSHZmp7kZCRn9jOwzH-1" value="Delivery Workflow (Temporal)" style="rounded=0;whiteSpace=wrap;html=1;fillColor=light-dark(#FFF4C3,var(--ge-dark-color, #121212));strokeColor=light-dark(#FFD966,#FFFFFF);" parent="1" vertex="1">
                    <mxGeometry x="340" y="181" width="222" height="77" as="geometry"/>
                </mxCell>
                <mxCell id="N_pRQEPDte80IIOeTLnO-1" value="Order Service" style="rounded=0;whiteSpace=wrap;html=1;fillColor=#fff2cc;strokeColor=#d6b656;" parent="1" vertex="1">
                    <mxGeometry x="100" y="366.5" width="121" height="57.5" as="geometry"/>
                </mxCell>
                <mxCell id="N_pRQEPDte80IIOeTLnO-2" value="" style="endArrow=none;startArrow=classic;html=1;rounded=0;entryX=0;entryY=0.5;entryDx=0;entryDy=0;edgeStyle=orthogonalEdgeStyle;startFill=1;exitX=0.5;exitY=0;exitDx=0;exitDy=0;" parent="1" source="N_pRQEPDte80IIOeTLnO-1" target="sGVSHZmp7kZCRn9jOwzH-1" edge="1">
                    <mxGeometry width="50" height="50" relative="1" as="geometry">
                        <mxPoint x="299" y="240" as="sourcePoint"/>
                        <mxPoint x="159.25" y="147" as="targetPoint"/>
                        <Array as="points">
                            <mxPoint x="160" y="222"/>
                            <mxPoint x="160" y="222"/>
                            <mxPoint x="160" y="220"/>
                        </Array>
                    </mxGeometry>
                </mxCell>
                <mxCell id="N_pRQEPDte80IIOeTLnO-3" value="1. Update OrderStatus to &quot;Finding Driver&quot;&amp;nbsp;" style="text;html=1;align=left;verticalAlign=middle;whiteSpace=wrap;rounded=0;" parent="1" vertex="1">
                    <mxGeometry x="11.5" y="170" width="135" height="30" as="geometry"/>
                </mxCell>
                <mxCell id="FCyn03ZtiModcpzmfuNr-1" style="edgeStyle=orthogonalEdgeStyle;rounded=0;orthogonalLoop=1;jettySize=auto;html=1;exitX=0;exitY=0.5;exitDx=0;exitDy=0;entryX=0.25;entryY=0;entryDx=0;entryDy=0;startArrow=classic;startFill=1;endArrow=none;" parent="1" source="N_pRQEPDte80IIOeTLnO-4" target="N_pRQEPDte80IIOeTLnO-18" edge="1">
                    <mxGeometry relative="1" as="geometry"/>
                </mxCell>
                <mxCell id="N_pRQEPDte80IIOeTLnO-4" value="Driver Service" style="rounded=0;whiteSpace=wrap;html=1;fillColor=#fff2cc;strokeColor=#d6b656;" parent="1" vertex="1">
                    <mxGeometry x="226" y="463" width="121" height="57.5" as="geometry"/>
                </mxCell>
                <mxCell id="N_pRQEPDte80IIOeTLnO-5" value="Notification Service" style="rounded=0;whiteSpace=wrap;html=1;fillColor=#fff2cc;strokeColor=#d6b656;" parent="1" vertex="1">
                    <mxGeometry x="541" y="371" width="121" height="57.5" as="geometry"/>
                </mxCell>
                <mxCell id="N_pRQEPDte80IIOeTLnO-7" value="" style="endArrow=classic;startArrow=classic;html=1;rounded=0;exitX=0.5;exitY=0;exitDx=0;exitDy=0;edgeStyle=orthogonalEdgeStyle;entryX=0.5;entryY=1;entryDx=0;entryDy=0;" parent="1" source="N_pRQEPDte80IIOeTLnO-4" target="sGVSHZmp7kZCRn9jOwzH-1" edge="1">
                    <mxGeometry width="50" height="50" relative="1" as="geometry">
                        <mxPoint x="398" y="309" as="sourcePoint"/>
                        <mxPoint x="378" y="285" as="targetPoint"/>
                        <Array as="points">
                            <mxPoint x="287" y="395"/>
                            <mxPoint x="451" y="395"/>
                        </Array>
                    </mxGeometry>
                </mxCell>
                <mxCell id="N_pRQEPDte80IIOeTLnO-11" value="2. Send Order Info to all Drivers" style="text;html=1;align=left;verticalAlign=middle;whiteSpace=wrap;rounded=0;" parent="1" vertex="1">
                    <mxGeometry x="609" y="279" width="179" height="30" as="geometry"/>
                </mxCell>
                <mxCell id="N_pRQEPDte80IIOeTLnO-16" value="&lt;font style=&quot;color: rgb(77, 153, 0);&quot;&gt;4a. Driver Accepts Delivery&lt;/font&gt;" style="text;html=1;align=left;verticalAlign=middle;whiteSpace=wrap;rounded=0;" parent="1" vertex="1">
                    <mxGeometry x="458" y="481" width="168" height="30" as="geometry"/>
                </mxCell>
                <mxCell id="N_pRQEPDte80IIOeTLnO-18" value="&lt;u&gt;Admin Frontend&lt;/u&gt;&lt;div&gt;- View all ongoing orders&lt;br&gt;&lt;/div&gt;&lt;div&gt;- Assign Drivers to Delivery&lt;/div&gt;" style="rounded=0;whiteSpace=wrap;html=1;" parent="1" vertex="1">
                    <mxGeometry x="112" y="624" width="216" height="60" as="geometry"/>
                </mxCell>
                <mxCell id="N_pRQEPDte80IIOeTLnO-24" value="&lt;font style=&quot;color: rgb(153, 0, 0);&quot;&gt;4b. Admin manually assigns Driver to Delivery&lt;/font&gt;" style="text;html=1;align=left;verticalAlign=middle;whiteSpace=wrap;rounded=0;" parent="1" vertex="1">
                    <mxGeometry x="170" y="550" width="150" height="40" as="geometry"/>
                </mxCell>
                <mxCell id="N_pRQEPDte80IIOeTLnO-25" value="6. Update OrderStatus to &quot;Driver Found&quot;" style="text;html=1;align=left;verticalAlign=middle;whiteSpace=wrap;rounded=0;" parent="1" vertex="1">
                    <mxGeometry x="10" y="220" width="135" height="30" as="geometry"/>
                </mxCell>
                <mxCell id="FCyn03ZtiModcpzmfuNr-2" style="edgeStyle=orthogonalEdgeStyle;rounded=0;orthogonalLoop=1;jettySize=auto;html=1;exitX=0.5;exitY=0;exitDx=0;exitDy=0;entryX=1;entryY=0.5;entryDx=0;entryDy=0;startArrow=none;startFill=0;" parent="1" source="N_pRQEPDte80IIOeTLnO-26" target="N_pRQEPDte80IIOeTLnO-4" edge="1">
                    <mxGeometry relative="1" as="geometry"/>
                </mxCell>
                <mxCell id="N_pRQEPDte80IIOeTLnO-26" value="&lt;u&gt;Driver Frontend&lt;/u&gt;&lt;div&gt;- Manage assigned Deliveries&lt;br&gt;&lt;/div&gt;&lt;div&gt;- View all available Deliveries&lt;/div&gt;&lt;div&gt;- Accepts Delivery&lt;/div&gt;" style="rounded=0;whiteSpace=wrap;html=1;" parent="1" vertex="1">
                    <mxGeometry x="347" y="624" width="216" height="60" as="geometry"/>
                </mxCell>
                <mxCell id="N_pRQEPDte80IIOeTLnO-28" value="9. Assign Order to Driver" style="text;html=1;align=left;verticalAlign=middle;whiteSpace=wrap;rounded=0;" parent="1" vertex="1">
                    <mxGeometry x="257.5" y="298" width="173" height="30" as="geometry"/>
                </mxCell>
                <mxCell id="N_pRQEPDte80IIOeTLnO-29" value="10. Wait for Pickup Signal from Driver Service within appropriate time" style="text;html=1;align=left;verticalAlign=middle;whiteSpace=wrap;rounded=0;" parent="1" vertex="1">
                    <mxGeometry x="333" y="37" width="208" height="30" as="geometry"/>
                </mxCell>
                <mxCell id="N_pRQEPDte80IIOeTLnO-30" value="&lt;font style=&quot;&quot;&gt;11b. If Pickup Signal is not received within appropriate time, send notification to Admin&lt;/font&gt;" style="text;html=1;align=left;verticalAlign=middle;whiteSpace=wrap;rounded=0;fontColor=#CC0000;" parent="1" vertex="1">
                    <mxGeometry x="332" y="67" width="237.5" height="40" as="geometry"/>
                </mxCell>
                <mxCell id="N_pRQEPDte80IIOeTLnO-33" value="&lt;font style=&quot;&quot;&gt;11a3. Update OrderStatus to &quot;Package Picked up&quot;&lt;/font&gt;" style="text;html=1;align=left;verticalAlign=middle;whiteSpace=wrap;rounded=0;fontColor=#336600;" parent="1" vertex="1">
                    <mxGeometry x="8" y="265" width="142" height="30" as="geometry"/>
                </mxCell>
                <mxCell id="N_pRQEPDte80IIOeTLnO-34" value="12. Wait for Delivered Signal from Driver Service within appropriate time" style="text;html=1;align=left;verticalAlign=middle;whiteSpace=wrap;rounded=0;" parent="1" vertex="1">
                    <mxGeometry x="333" y="110" width="218" height="30" as="geometry"/>
                </mxCell>
                <mxCell id="N_pRQEPDte80IIOeTLnO-35" value="&lt;font style=&quot;&quot;&gt;11a1. Driver indicates package is picked up&lt;/font&gt;" style="text;html=1;align=left;verticalAlign=middle;whiteSpace=wrap;rounded=0;fontColor=#336600;" parent="1" vertex="1">
                    <mxGeometry x="458" y="520.5" width="123" height="34" as="geometry"/>
                </mxCell>
                <mxCell id="N_pRQEPDte80IIOeTLnO-38" value="&lt;font style=&quot;&quot;&gt;11a2. Receives pickup indicator and sends Pickup Signal&lt;/font&gt;" style="text;html=1;align=left;verticalAlign=middle;whiteSpace=wrap;rounded=0;fontColor=#336600;" parent="1" vertex="1">
                    <mxGeometry x="256" y="330" width="176" height="34" as="geometry"/>
                </mxCell>
                <mxCell id="N_pRQEPDte80IIOeTLnO-39" value="&lt;font style=&quot;&quot;&gt;13a1. Driver indicates package is delivered&lt;/font&gt;" style="text;html=1;align=left;verticalAlign=middle;whiteSpace=wrap;rounded=0;fontColor=#66CC00;" parent="1" vertex="1">
                    <mxGeometry x="456.5" y="570" width="121.5" height="34" as="geometry"/>
                </mxCell>
                <mxCell id="N_pRQEPDte80IIOeTLnO-40" value="&lt;font style=&quot;&quot;&gt;13a2. Receives delivered indicator and sends Delivered Signal&lt;/font&gt;" style="text;html=1;align=left;verticalAlign=middle;whiteSpace=wrap;rounded=0;fontColor=#66CC00;" parent="1" vertex="1">
                    <mxGeometry x="255" y="360" width="192" height="37" as="geometry"/>
                </mxCell>
                <mxCell id="N_pRQEPDte80IIOeTLnO-41" value="&lt;font style=&quot;&quot;&gt;13a3. Update OrderStatus to &quot;Package Delivered&quot;&lt;/font&gt;" style="text;html=1;align=left;verticalAlign=middle;whiteSpace=wrap;rounded=0;fontColor=#66CC00;" parent="1" vertex="1">
                    <mxGeometry x="6.5" y="316" width="145" height="30" as="geometry"/>
                </mxCell>
                <mxCell id="N_pRQEPDte80IIOeTLnO-42" value="&lt;font style=&quot;&quot;&gt;13b. If Delivered Signal is not received within appropriate time, send notification to Admin&lt;/font&gt;" style="text;html=1;align=left;verticalAlign=middle;whiteSpace=wrap;rounded=0;fontColor=#660000;" parent="1" vertex="1">
                    <mxGeometry x="332" y="142" width="246" height="40" as="geometry"/>
                </mxCell>
                <mxCell id="FCyn03ZtiModcpzmfuNr-4" value="3. Sends Order notification to all online drivers" style="text;html=1;align=left;verticalAlign=middle;whiteSpace=wrap;rounded=0;" parent="1" vertex="1">
                    <mxGeometry x="713" y="496" width="92" height="30" as="geometry"/>
                </mxCell>
                <mxCell id="FCyn03ZtiModcpzmfuNr-6" value="5. Receives driverfound indicator and sends driverfound Signal" style="text;html=1;align=left;verticalAlign=middle;whiteSpace=wrap;rounded=0;" parent="1" vertex="1">
                    <mxGeometry x="257.5" y="268" width="184" height="30" as="geometry"/>
                </mxCell>
                <mxCell id="FCyn03ZtiModcpzmfuNr-7" value="7. Invalidate Order Info to all other Drivers" style="text;html=1;align=left;verticalAlign=middle;whiteSpace=wrap;rounded=0;" parent="1" vertex="1">
                    <mxGeometry x="466" y="282" width="136" height="30" as="geometry"/>
                </mxCell>
                <mxCell id="FCyn03ZtiModcpzmfuNr-8" value="8. Invalidates Order notification" style="text;html=1;align=left;verticalAlign=middle;whiteSpace=wrap;rounded=0;" parent="1" vertex="1">
                    <mxGeometry x="621" y="493" width="92" height="30" as="geometry"/>
                </mxCell>
                <mxCell id="34fghi_qDAuXojR1en3q-3" value="" style="edgeStyle=segmentEdgeStyle;endArrow=classic;html=1;curved=0;rounded=0;endSize=8;startSize=8;" parent="1" target="N_pRQEPDte80IIOeTLnO-5" edge="1">
                    <mxGeometry width="50" height="50" relative="1" as="geometry">
                        <mxPoint x="563" y="220" as="sourcePoint"/>
                        <mxPoint x="613" y="170" as="targetPoint"/>
                    </mxGeometry>
                </mxCell>
                <mxCell id="34fghi_qDAuXojR1en3q-4" value="" style="edgeStyle=elbowEdgeStyle;elbow=horizontal;endArrow=classic;html=1;curved=0;rounded=0;endSize=8;startSize=8;entryX=0.991;entryY=0.62;entryDx=0;entryDy=0;entryPerimeter=0;" parent="1" target="N_pRQEPDte80IIOeTLnO-26" edge="1">
                    <mxGeometry width="50" height="50" relative="1" as="geometry">
                        <mxPoint x="662" y="401" as="sourcePoint"/>
                        <mxPoint x="712" y="351" as="targetPoint"/>
                        <Array as="points">
                            <mxPoint x="701" y="654"/>
                        </Array>
                    </mxGeometry>
                </mxCell>
                <mxCell id="2" value="&lt;h5&gt;&lt;font style=&quot;font-size: 15px;&quot; face=&quot;Lucida Console&quot;&gt;&lt;i&gt;Temporal&lt;/i&gt;&lt;/font&gt;&lt;/h5&gt;" style="text;html=1;align=left;verticalAlign=middle;whiteSpace=wrap;rounded=0;" vertex="1" parent="1">
                    <mxGeometry x="713" y="530" width="100" height="30" as="geometry"/>
                </mxCell>
                <mxCell id="3" value="&lt;h5&gt;&lt;font face=&quot;Lucida Console&quot;&gt;&lt;span style=&quot;font-size: 15px;&quot;&gt;&lt;i&gt;Temporal&lt;/i&gt;&lt;/span&gt;&lt;/font&gt;&lt;/h5&gt;" style="text;html=1;align=left;verticalAlign=middle;whiteSpace=wrap;rounded=0;" vertex="1" parent="1">
                    <mxGeometry x="609" y="304" width="100" height="30" as="geometry"/>
                </mxCell>
                <mxCell id="4" value="&lt;h5&gt;&lt;font style=&quot;font-size: 15px;&quot; face=&quot;Lucida Console&quot;&gt;&lt;i&gt;HTTP Put&amp;nbsp;&lt;/i&gt;&lt;/font&gt;&lt;/h5&gt;" style="text;html=1;align=left;verticalAlign=middle;whiteSpace=wrap;rounded=0;" vertex="1" parent="1">
                    <mxGeometry x="458" y="496" width="100" height="30" as="geometry"/>
                </mxCell>
                <mxCell id="5" value="&lt;h5&gt;&lt;font style=&quot;font-size: 15px;&quot; face=&quot;Lucida Console&quot;&gt;&lt;i&gt;HTTP Put&amp;nbsp;&lt;/i&gt;&lt;/font&gt;&lt;/h5&gt;" style="text;html=1;align=left;verticalAlign=middle;whiteSpace=wrap;rounded=0;" vertex="1" parent="1">
                    <mxGeometry x="458" y="546" width="100" height="30" as="geometry"/>
                </mxCell>
                <mxCell id="6" value="&lt;h5&gt;&lt;font style=&quot;font-size: 15px;&quot; face=&quot;Lucida Console&quot;&gt;&lt;i&gt;HTTP Put&amp;nbsp;&lt;/i&gt;&lt;/font&gt;&lt;/h5&gt;" style="text;html=1;align=left;verticalAlign=middle;whiteSpace=wrap;rounded=0;" vertex="1" parent="1">
                    <mxGeometry x="458" y="594" width="100" height="30" as="geometry"/>
                </mxCell>
                <mxCell id="7" value="&lt;h5&gt;&lt;font style=&quot;font-size: 15px;&quot; face=&quot;Lucida Console&quot;&gt;&lt;i&gt;HTTP Put&amp;nbsp;&lt;/i&gt;&lt;/font&gt;&lt;/h5&gt;" style="text;html=1;align=left;verticalAlign=middle;whiteSpace=wrap;rounded=0;" vertex="1" parent="1">
                    <mxGeometry x="170" y="581" width="100" height="30" as="geometry"/>
                </mxCell>
                <mxCell id="8" value="&lt;h5&gt;&lt;font style=&quot;font-size: 15px;&quot; face=&quot;Lucida Console&quot;&gt;&lt;i&gt;HTTP Put&amp;nbsp;&lt;/i&gt;&lt;/font&gt;&lt;/h5&gt;" style="text;html=1;align=left;verticalAlign=middle;whiteSpace=wrap;rounded=0;" vertex="1" parent="1">
                    <mxGeometry x="10" y="190" width="100" height="30" as="geometry"/>
                </mxCell>
                <mxCell id="9" value="&lt;h5&gt;&lt;font style=&quot;font-size: 15px;&quot; face=&quot;Lucida Console&quot;&gt;&lt;i&gt;HTTP Put&amp;nbsp;&lt;/i&gt;&lt;/font&gt;&lt;/h5&gt;" style="text;html=1;align=left;verticalAlign=middle;whiteSpace=wrap;rounded=0;" vertex="1" parent="1">
                    <mxGeometry x="10" y="238" width="100" height="30" as="geometry"/>
                </mxCell>
                <mxCell id="10" value="&lt;h5&gt;&lt;font style=&quot;font-size: 15px;&quot; face=&quot;Lucida Console&quot;&gt;&lt;i&gt;HTTP Put&amp;nbsp;&lt;/i&gt;&lt;/font&gt;&lt;/h5&gt;" style="text;html=1;align=left;verticalAlign=middle;whiteSpace=wrap;rounded=0;" vertex="1" parent="1">
                    <mxGeometry x="8" y="286" width="100" height="30" as="geometry"/>
                </mxCell>
                <mxCell id="11" value="&lt;h5&gt;&lt;font style=&quot;font-size: 15px;&quot; face=&quot;Lucida Console&quot;&gt;&lt;i&gt;HTTP Put&amp;nbsp;&lt;/i&gt;&lt;/font&gt;&lt;/h5&gt;" style="text;html=1;align=left;verticalAlign=middle;whiteSpace=wrap;rounded=0;" vertex="1" parent="1">
                    <mxGeometry x="8" y="336.5" width="100" height="30" as="geometry"/>
                </mxCell>
                <mxCell id="12" value="&lt;h5&gt;&lt;font face=&quot;Lucida Console&quot;&gt;&lt;span style=&quot;font-size: 15px;&quot;&gt;&lt;i&gt;Temporal&lt;/i&gt;&lt;/span&gt;&lt;/font&gt;&lt;/h5&gt;" style="text;html=1;align=left;verticalAlign=middle;whiteSpace=wrap;rounded=0;" vertex="1" parent="1">
                    <mxGeometry x="466" y="306.5" width="100" height="30" as="geometry"/>
                </mxCell>
                <mxCell id="13" value="&lt;h5&gt;&lt;font face=&quot;Lucida Console&quot;&gt;&lt;span style=&quot;font-size: 15px;&quot;&gt;&lt;i&gt;Temporal&lt;/i&gt;&lt;/span&gt;&lt;/font&gt;&lt;/h5&gt;" style="text;html=1;align=left;verticalAlign=middle;whiteSpace=wrap;rounded=0;" vertex="1" parent="1">
                    <mxGeometry x="621" y="530" width="100" height="30" as="geometry"/>
                </mxCell>
                <mxCell id="14" value="" style="rounded=0;whiteSpace=wrap;html=1;strokeWidth=5;perimeterSpacing=6;" vertex="1" parent="1">
                    <mxGeometry x="598" y="704" width="190" height="118" as="geometry"/>
                </mxCell>
                <mxCell id="15" value="" style="rounded=0;whiteSpace=wrap;html=1;fillColor=#fff2cc;strokeColor=#d6b656;" vertex="1" parent="1">
                    <mxGeometry x="614" y="744" width="65" height="40" as="geometry"/>
                </mxCell>
                <mxCell id="16" value="Microservice" style="text;whiteSpace=wrap;align=left;fontColor=#000000;labelBackgroundColor=none;" vertex="1" parent="1">
                    <mxGeometry x="688.5" y="751.75" width="73" height="24.5" as="geometry"/>
                </mxCell>
            </root>
        </mxGraphModel>
    </diagram>
</mxfile>